<svg width="31" height="31" viewBox="0 0 31 31" fill="none" xmlns="http://www.w3.org/2000/svg">
<path d="M5.32942 25.8333C5.12792 25.8333 4.94967 25.7855 4.79467 25.69C4.63967 25.5944 4.51912 25.4682 4.433 25.3115C4.34 25.1574 4.28834 24.9907 4.27801 24.8116C4.26939 24.6316 4.3202 24.4504 4.43042 24.2678L14.5958 6.73216C14.7061 6.5496 14.8387 6.41699 14.9937 6.33433C15.1487 6.25166 15.3174 6.21033 15.5 6.21033C15.6826 6.21033 15.8509 6.25166 16.005 6.33433C16.1592 6.41699 16.2918 6.5496 16.4029 6.73216L26.5696 24.2678C26.6798 24.4504 26.7302 24.6312 26.7207 24.8103C26.7121 24.9912 26.6604 25.1582 26.5657 25.3115C26.4796 25.4682 26.359 25.5944 26.204 25.69C26.049 25.7855 25.8712 25.8333 25.6706 25.8333H5.32942ZM5.74792 24.5417H25.2521L15.5 7.74999L5.74792 24.5417ZM15.5 22.754C15.7256 22.754 15.9146 22.6778 16.067 22.5254C16.2195 22.3729 16.2952 22.1839 16.2944 21.9583C16.2935 21.7327 16.2173 21.5441 16.0658 21.3926C15.9142 21.241 15.7256 21.1644 15.5 21.1627C15.2744 21.1609 15.0858 21.2371 14.9343 21.3913C14.7827 21.5454 14.7065 21.7344 14.7056 21.9583C14.7048 22.1822 14.781 22.3712 14.9343 22.5254C15.0875 22.6795 15.2761 22.7557 15.5 22.754ZM15.5 19.8723C15.6843 19.8723 15.838 19.8103 15.9611 19.6863C16.0843 19.5623 16.1458 19.409 16.1458 19.2265V14.0598C16.1458 13.8764 16.0838 13.7227 15.9598 13.5987C15.8358 13.4747 15.6821 13.4131 15.4987 13.414C15.3153 13.4148 15.162 13.4764 15.0389 13.5987C14.9157 13.7209 14.8542 13.8746 14.8542 14.0598V19.2265C14.8542 19.409 14.9162 19.5623 15.0402 19.6863C15.1642 19.8103 15.3179 19.8723 15.5013 19.8723" fill="#D23411"/>
</svg>
